<?xml version="1.0" encoding="UTF-8"?>
<!-- Created with Inkscape (http://www.inkscape.org/) -->
<svg width="45.475mm" height="44.036mm" version="1.1" viewBox="0 0 45.475 44.036" xml:space="preserve" xmlns="http://www.w3.org/2000/svg"><path d="m39.881 0.38561c-1.0378 0-2.447 1.083-2.5482 1.9585-0.11004 0.95212 0.16399 2.0752 0.46147 1.8914 0.12477-0.07711 0.37414 0.03757 0.55397 0.25425 0.17986 0.21668 0.23405 0.39377 0.12092 0.39377-0.43498 0 0.75531 1.0338 1.2935 1.1234 1.5274 0.25438 3.0349-1.595 2.7104-3.3249-0.20924-1.1153-1.5424-2.2965-2.5921-2.2965zm-25.282 2.1167c-0.63373 0-2.1428 1.4691-2.3477 2.2851-0.07954 0.3169-0.0034 0.83953 0.16898 1.1617 0.2565 0.47927 0.24829 0.54566-0.04393 0.36639-0.25486-0.15635-0.23712-0.0325 0.06201 0.4315 0.23053 0.3576 0.82585 0.85816 1.3229 1.1126 1.064 0.54462 1.2369 0.55347 2.0443 0.10542 1.2069-0.66971 2.1014-2.7636 1.373-3.2138-0.14552-0.08994-0.26458-0.38518-0.26458-0.65577 0-0.55715-1.5057-1.5932-2.3151-1.5932zm17.719 2.9006c-1.2408-0.0095-2.4416 0.77487-2.4334 1.9472 0.0064 0.92302 0.89411 3.0895 1.3968 3.4091 0.92127 0.58564 2.9314-0.38452 3.5765-1.726 0.44962-0.93496 0.02756-2.3318-0.93276-3.0872-0.47098-0.37047-1.0431-0.53882-1.6071-0.54312zm-9.3209 0.80357c-1.9569 0-2.7469 2.1164-1.433 3.839 0.37472 0.49128 0.64261 0.98828 0.59531 1.1043s0.2714 0.27885 0.70797 0.36225c0.97625 0.18648 1.4176 0.0601 2.1787-0.62477 0.87741-0.78956 1.0157-2.0231 0.36897-3.2908-0.60676-1.1893-0.95588-1.3901-2.4179-1.3901zm-14.047 8.9984c-0.67301-0.0039-2.7979 4.9546-6.6161 15.44-2.1858 6.0023-2.5398 7.4222-2.2438 9 0.2232 1.1898 1.9386 3.3735 3.0996 3.9455 0.49074 0.24176 0.95319 0.44245 1.0273 0.44545 0.22162 0.0099 0.66937-0.8005 4.1357-7.4874 4.9804-9.6077 9.4703-15.951 12.32-17.405 2.2821-1.1643 2.4929-0.41048 0.74931 2.6825-3.6816 6.5309-6.066 13.831-5.7604 17.639 0.1943 2.4206 1.3269 4.0229 3.1486 4.455 1.0184 0.24159 1.5231-0.39372 2.8608-3.5987 4.0793-9.7738 5.1786-11.892 8.3695-16.128 2.1745-2.8867 3.9518-4.624 5.3098-5.1914 2.0645-0.86261 2.1769 0.15088 0.36794 3.3125-4.5448 7.9429-6.9133 16.576-5.3754 19.592 0.67534 1.3244 1.6681 1.9392 3.359 2.0795 3.0247 0.25083 5.5716-1.8417 9.6475-7.9261 1.9286-2.879 2.1389-3.3164 2.1249-4.4194-0.01336-1.0511-0.0601-1.1544-0.33073-0.72864-0.83407 1.3122-4.027 5.4159-4.7697 6.1304-2.5553 2.4581-3.888 2.2353-3.2959-0.55139 0.35664-1.6785 2.2311-6.0729 4.085-9.5762 2.7368-5.1716 3.3673-7.794 2.3146-9.6273-1.172-2.041-4.6337-2.7214-7.1427-1.404-1.3608 0.71454-4.7339 3.8484-6.4838 6.0239-1.1046 1.3732-1.2635 1.3276-0.63304-0.18138 0.50834-1.2167 0.50873-3.1586 5.17e-4 -4.1413-0.21812-0.42181-0.83032-1.0976-1.3601-1.5017-0.7842-0.59813-1.2968-0.75352-2.758-0.83612-1.513-0.08549-2.0349 0.0083-3.3228 0.5979-2.3732 1.0865-5.4788 4.431-9.048 9.7431-1.6378 2.4375-3.0458 4.4318-3.129 4.4318-0.31179 0 0.21176-1.3554 1.8014-4.6628 1.3831-2.8776 1.6532-3.6744 1.7374-5.1268 0.08009-1.3827-0.0046-1.8863-0.43253-2.5683-0.53832-0.85787-2.9759-2.4512-3.7564-2.4562z" fill="#2b0000" stroke-width=".26458"/><g fill="#d4af37" stroke-width="0"><path d="m14.844 2.327a3.1177 3.2568 0 0 0-3.1178 3.2569 3.1177 3.2568 0 0 0 3.1178 3.2569 3.1177 3.2568 0 0 0 3.1178-3.2569 3.1177 3.2568 0 0 0-3.1178-3.2569z"/><path d="m23.517 5.2886a3.1177 3.2568 0 0 0-3.1178 3.2569 3.1177 3.2568 0 0 0 3.1178 3.2569 3.1177 3.2568 0 0 0 3.1178-3.2569 3.1177 3.2568 0 0 0-3.1178-3.2569z"/><path d="m32.402 5.0771a3.1177 3.2568 0 0 0-3.1178 3.2569 3.1177 3.2568 0 0 0 3.1178 3.2569 3.1177 3.2568 0 0 0 3.1178-3.2569 3.1177 3.2568 0 0 0-3.1178-3.2569z"/><path d="m40.017 0a3.1177 3.2568 0 0 0-3.1178 3.2569 3.1177 3.2568 0 0 0 3.1178 3.2569 3.1177 3.2568 0 0 0 3.1178-3.2569 3.1177 3.2568 0 0 0-3.1178-3.2569z"/></g></svg>
